<svg version="1.1" id="prujezdni-vyska" xmlns="http://www.w3.org/2000/svg" xmlns:xlink="http://www.w3.org/1999/xlink" x="0px" y="0px"
	 viewBox="0 0 512 512" style="enable-background:new 0 0 512 512;" xml:space="preserve">
<style type="text/css">
	.st0{fill:#56a702;}
</style>
<g>
	<g>
		<path d="M440.3,272.8c-1.8-1.7-4.2-2.6-6.7-2.7l-251.2-145c-2.4-1.4-5.1-1.7-7.7-1s-4.9,2.4-6.1,4.7l-4.6,8.1l-33.8-18.3
			c-5.1-2.7-11.4-1.2-14.7,3.5L93,154.3v-7.1c0-6.2-5.1-11.3-11.3-11.3s-11.3,5.1-11.3,11.3v50.5H11.6c-6.2,0-11.3,5.1-11.3,11.3
			s5.1,11.3,11.3,11.3h70.2c6.2,0,11.3-5.1,11.3-11.3v-15.5c0.6-0.6,1.1-1,1.6-1.7l11.2-16.1l22.5-32.5l21.5,11.6l2.9,1.6l-5.1,8.9
			c-2.8,4.9-1.1,11.1,3.7,13.8l79.7,46.1c-54.8,3.2-73.3,53.9-75.4,81.7c-0.1,0.6-0.1,1.1-0.2,1.7c-15.8,1.9-36.2,10.7-46.3,35
			c-12.9,6.2-22.5,17.8-26,32h-9.3l-4.5-39.4c-0.7-6.2-6.3-10.6-12.5-9.9s-10.6,6.3-9.9,12.5l5.8,49.3c0.7,5.6,5.4,9.9,11.2,9.9
			h19.3c5.1,21.1,24,36.8,46.7,36.8s41.7-15.7,46.7-36.8h123.6c5.1,21.1,24,36.8,46.7,36.8c26.5,0,48.1-21.6,48.1-48.1
			c0-1.4-0.1-2.7-0.2-4.1l27.9-1.9c5.4-0.3,9.7-4.5,10.4-9.8l10.7-88.2C444.4,278.9,443,275.3,440.3,272.8z M170.1,166.6l11-19
			l223.2,128.8l-30.9,7.5l-55.8-32.2l-43.7-25.2L170.1,166.6z M344.8,290.8l-14.7,3.5c-0.7-4.7-1.5-9.3-2.5-13.4L344.8,290.8z
			 M177.9,310c0-0.3,0.1-0.7,0.1-1.1c0.2-2.5,5.2-61.5,58.4-61.5c0.1,0,0.1,0,0.2,0c14.7,0,26.6,0.8,35.8,1.7
			c9.3,0.9,15.7,2,19.3,2.7c1.7,2.5,4.1,6.7,6.7,12.3c3.8,8.5,7.8,20.4,9.7,36c-9.3,3.4-23.5,10.2-36.6,23.6h-83.9
			c-1.5,0-6.3-0.8-8.5-3.5C177.1,317.7,177.4,313.3,177.9,310z M129.9,412.4c-14.1,0-25.6-11.5-25.6-25.6s11.5-25.6,25.6-25.6
			s25.6,11.5,25.6,25.6C155.6,400.9,144.1,412.4,129.9,412.4z M347,412.4c-11.4,0-21-7.6-24.3-18c-0.8-2.5-1.4-5-1.4-7.7
			s0.6-5.2,1.4-7.7c3.3-10.4,12.9-18,24.3-18c6.7,0,12.8,2.6,17.4,6.9c4.3,4.1,7.2,9.6,7.9,15.7c0.1,1,0.3,1.9,0.3,2.9
			C372.7,400.9,361.2,412.4,347,412.4z M415.9,326.7l-4,32.2l-24.6,1.7c-8.6-13.2-23.5-21.9-40.3-21.9c-0.5,0-0.8,0-1.1,0.1
			c-22.1,0.6-40.5,16-45.5,36.8H176.7c-4.4-18.4-19.4-32.6-38.2-36c6.9-6.3,15-8.4,20.7-8.8c0.9,1.6,1.9,2.9,2.8,4.1
			c9.4,11.1,23.9,11.4,25.5,11.4h88.9c3.3,0,6.3-1.5,8.5-3.8c16.5-19,36.9-22.9,37.1-22.9c0.1,0,0.2-0.1,0.3-0.1c0.1,0,0.2,0,0.3,0
			l5.5-1.4l44.8-10.7l28.6-6.9l9.7-2.4l8.1-1.9L415.9,326.7z"/>
	</g>
</g>
<g>
	<g>
		<path class="st0" d="M486.3,358.4V250.1l17.1,25.9c1.5,2.3,3.9,2.3,5.4,0s1.5-5.9,0-8.2L485.2,232c-1.5-2.3-3.9-2.3-5.4,0
			l-23.7,35.8c-0.8,1.1-1.1,2.6-1.1,4.1s0.4,3,1.1,4.1c1.5,2.3,3.9,2.3,5.4,0l17.1-25.9v108.3c0,3.2,1.7,5.8,3.8,5.8
			S486.3,361.6,486.3,358.4z"/>
	</g>
</g>
<g>
	<g>
		<path class="st0" d="M478.7,306.1v108.3l-17.1-25.9c-1.5-2.3-3.9-2.3-5.4,0s-1.5,5.9,0,8.2l23.7,35.8c1.5,2.3,3.9,2.3,5.4,0
			l23.7-35.8c0.8-1.1,1.1-2.6,1.1-4.1s-0.4-3-1.1-4.1c-1.5-2.3-3.9-2.3-5.4,0l-17.1,25.9V306.1c0-3.2-1.7-5.8-3.8-5.8
			S478.7,302.8,478.7,306.1z"/>
	</g>
</g>
</svg>
